<svg preserveAspectRatio="none" width="100%" height="100%" overflow="visible" style="display: block;" viewBox="0 0 63 63" fill="none" xmlns="http://www.w3.org/2000/svg">
<g id="bubble">
<g id="Subtract" filter="url(#filter0_d_0_7526)">
<path d="M31.5 17C39.5081 17 46 23.4919 46 31.5C46 39.5081 39.5081 46 31.5 46C23.4919 46 17 39.5081 17 31.5C17 23.4919 23.4919 17 31.5 17ZM31.5 18.1152C24.1081 18.1155 18.1162 24.1081 18.1162 31.5C18.1162 38.892 24.1081 44.8845 31.5 44.8848C38.8921 44.8848 44.8848 38.8921 44.8848 31.5C44.8847 24.1079 38.8921 18.1152 31.5 18.1152Z" fill="var(--fill-0, white)"/>
</g>
<g id="Vector 1" filter="url(#filter1_d_0_7526)">
<path d="M36.7712 31.1706C36.5076 28.0069 33.3659 25.2387 31.828 24.2501C29.1706 21.9433 33.8053 20.6251 35.7826 23.2615C37.3644 25.3706 37.1008 29.413 36.7712 31.1706Z" fill="var(--fill-0, white)"/>
</g>
</g>
<defs>
<filter id="filter0_d_0_7526" x="0" y="0" width="63" height="63" filterUnits="userSpaceOnUse" color-interpolation-filters="sRGB">
<feFlood flood-opacity="0" result="BackgroundImageFix"/>
<feColorMatrix in="SourceAlpha" type="matrix" values="0 0 0 0 0 0 0 0 0 0 0 0 0 0 0 0 0 0 127 0" result="hardAlpha"/>
<feOffset/>
<feGaussianBlur stdDeviation="8.5"/>
<feColorMatrix type="matrix" values="0 0 0 0 1 0 0 0 0 1 0 0 0 0 1 0 0 0 1 0"/>
<feBlend mode="normal" in2="BackgroundImageFix" result="effect1_dropShadow_0_7526"/>
<feBlend mode="normal" in="SourceGraphic" in2="effect1_dropShadow_0_7526" result="shape"/>
</filter>
<filter id="filter1_d_0_7526" x="26.0263" y="16.8054" width="15.9949" height="19.3651" filterUnits="userSpaceOnUse" color-interpolation-filters="sRGB">
<feFlood flood-opacity="0" result="BackgroundImageFix"/>
<feColorMatrix in="SourceAlpha" type="matrix" values="0 0 0 0 0 0 0 0 0 0 0 0 0 0 0 0 0 0 127 0" result="hardAlpha"/>
<feOffset/>
<feGaussianBlur stdDeviation="2.5"/>
<feColorMatrix type="matrix" values="0 0 0 0 1 0 0 0 0 1 0 0 0 0 1 0 0 0 1 0"/>
<feBlend mode="normal" in2="BackgroundImageFix" result="effect1_dropShadow_0_7526"/>
<feBlend mode="normal" in="SourceGraphic" in2="effect1_dropShadow_0_7526" result="shape"/>
</filter>
</defs>
</svg>
