<svg width="95" height="57" viewBox="0 0 95 57" fill="none" xmlns="http://www.w3.org/2000/svg">
<path d="M65.5713 0.0382095C73.3715 -0.355239 80.4604 2.29997 86.2236 7.53528C87.9073 9.065 88.39 9.93568 89.6553 11.6564C93.052 16.2757 94.6816 20.9544 94.9619 26.7013C95.1802 31.1831 94.3801 36.058 92.5068 40.173C91.8188 41.6851 90.6408 43.443 89.6699 44.7999C89.0055 45.7282 88.1297 46.9489 87.334 47.795C82.12 53.3383 75.148 56.0332 67.6377 56.4279C64.9545 56.5689 62.2454 56.2304 59.6836 55.5236C58.5403 55.2081 57.2216 54.946 56.1348 54.5236C53.4161 53.4668 50.384 51.7211 48.2607 49.7238C47.5178 49.0249 45.6179 47.3328 45.1133 46.6056C45.2561 46.4018 45.4444 46.1725 45.6377 45.9435L46.1963 45.2853C49.0523 42.159 51.8026 35.4992 52.4238 31.2853L52.5635 30.5265C52.7613 30.8062 53.2074 32.5754 53.374 33.046C54.9348 37.4532 59.2357 41.07 63.8018 41.9982C67.0671 42.662 71.7487 42.041 74.5107 40.0646C80.8619 35.5185 82.7747 26.9876 78.3633 20.3907C74.1142 13.9237 65.0927 12.607 58.8047 16.6964C56.3062 18.3214 54.1237 21.429 53.1689 24.2306C52.8446 25.2542 52.6059 26.5749 52.3906 27.7882L52.1807 28.9503L51.8691 30.7472L51.8682 30.7491C51.0735 34.4671 49.9218 38.0617 48.1729 41.4572C47.4528 42.8551 46.4854 44.1356 45.5508 45.3995L45.3184 45.6466C45.0834 45.9089 44.8464 46.2065 44.6348 46.462H44.6338C44.0221 47.1387 43.4095 47.813 42.7363 48.4298C37.8963 52.8644 32.0301 55.1276 25.5127 55.5724C22.2343 55.7961 18.8814 55.6534 15.5928 55.6847C10.4093 55.7342 5.17933 55.8249 0 55.5958L0.0927734 0.74817C2.40919 0.784758 4.75383 0.709255 7.07227 0.689577L17.0674 0.674928C21.1344 0.67513 25.1105 0.472797 29.1133 1.21594C30.737 1.51739 32.1648 1.66865 33.7051 2.38684C37.3156 4.07053 40.9662 6.09516 43.667 9.08215C43.8955 9.33486 44.2527 9.74047 44.4531 10.0538L44.5283 10.1818C39.955 14.9342 38.6997 18.5806 37.0205 24.673L37.043 25.0304L37.0205 24.674C36.9713 24.9244 36.9658 25.2252 36.8164 25.3741L36.6143 25.3175C35.9261 22.7508 35.1733 20.7874 33.3135 18.7794C31.188 16.4849 27.9329 15.1052 24.8574 14.7482C23.5392 14.5952 21.5102 14.6666 20.1338 14.6749C18.386 14.6916 16.6377 14.6749 14.8906 14.6241C14.8693 15.0478 14.8578 15.373 14.873 15.798C14.7827 17.1446 14.8417 18.9731 14.8438 20.3712L14.8369 28.0978L14.8418 36.8439C14.8466 38.0063 14.7931 39.7539 14.8643 40.8595L14.832 41.7824C16.4577 41.836 18.2298 41.7614 19.8594 41.7824C24.1196 41.8371 27.7904 41.8975 31.4141 39.2062C34.3819 37.0017 35.6921 34.5528 36.5068 31.0011C36.7691 29.8576 37.0161 29.0176 37.1914 27.8156C37.2256 27.4444 37.2728 27.0701 37.3252 26.6964L37.4893 25.5802L37.6055 24.9777C38.8342 18.8311 40.8521 15.2453 44.8125 10.3273C49.0962 5.57122 53.5334 2.3788 59.7783 1.03723C61.731 0.617788 63.5209 0.0261182 65.5713 0.0382095Z" fill="url(#paint0_linear_1412_1000)"/>
<defs>
<linearGradient id="paint0_linear_1412_1000" x1="47" y1="0.229221" x2="54.0002" y2="56.2301" gradientUnits="userSpaceOnUse">
<stop stop-color="#FA0047"/>
<stop offset="0.624766" stop-color="#FF4772"/>
<stop offset="1" stop-color="#EC1452"/>
</linearGradient>
</defs>
</svg>
