<svg preserveAspectRatio="none" width="100%" height="100%" overflow="visible" style="display: block;" viewBox="0 0 43 27" fill="none" xmlns="http://www.w3.org/2000/svg">
<path id="DO" d="M29.8164 0.25C32.3584 0.250043 34.6032 0.7839 36.543 1.85938C38.4815 2.9342 40.002 4.46187 41.1016 6.4375C42.2039 8.39426 42.7499 10.7098 42.75 13.374C42.75 15.9917 42.2036 18.3178 41.1035 20.3438L41.1025 20.3428C40.0264 22.344 38.4953 23.9199 36.5117 25.0664L36.5107 25.0674C34.5464 26.1921 32.2535 26.75 29.6406 26.75C27.0747 26.75 24.8174 26.2038 22.877 25.1035C21.8311 24.5105 20.9105 23.7886 20.1152 22.9395C19.3097 23.7862 18.3602 24.4859 17.2666 25.0371L17.2646 25.0381C15.3252 25.9912 13.0015 26.4629 10.3027 26.4629H0.25V0.572266H10.2324C12.8858 0.572266 15.1866 1.05576 17.126 2.0332H17.125C18.2635 2.60006 19.2493 3.32842 20.083 4.21582C20.9215 3.29592 21.9003 2.52189 23.0186 1.89551C24.9818 0.79593 27.2505 0.25 29.8164 0.25ZM29.7461 6.88281C28.3095 6.88281 27.1724 7.21937 26.3135 7.87109L26.3096 7.87402C25.4338 8.51579 24.7958 9.3391 24.3916 10.3477C23.9818 11.3702 23.7764 12.4262 23.7764 13.5176C23.7764 14.6074 23.981 15.6624 24.3896 16.6836L24.5605 17.0547C24.9831 17.8972 25.5761 18.5984 26.3418 19.1602H26.3428C27.2273 19.7921 28.3675 20.1172 29.7812 20.1172C31.2405 20.1171 32.3872 19.7805 33.2451 19.1309C34.124 18.4408 34.7523 17.5929 35.1338 16.585L35.1357 16.5811C35.5467 15.5556 35.75 14.5468 35.75 13.5537C35.75 12.8146 35.637 12.0615 35.4092 11.2939L35.4062 11.2852C35.2032 10.5023 34.865 9.77711 34.3906 9.1084L34.3877 9.10352C33.9436 8.44626 33.342 7.91084 32.5781 7.49805C31.8275 7.09245 30.8874 6.88285 29.7461 6.88281ZM7.10938 19.9736H10.373C11.9175 19.9736 13.0951 19.7026 13.9307 19.1865C14.7973 18.6418 15.4055 17.8962 15.7607 16.9443L15.7627 16.9395C16.1469 15.9704 16.3418 14.8434 16.3418 13.5537C16.3418 12.3113 16.1584 11.2059 15.7959 10.2344L15.7949 10.2324C15.4396 9.2577 14.8206 8.50144 13.9316 7.95703L13.9277 7.9541C13.0467 7.39217 11.7886 7.09766 10.127 7.09766H7.10938V19.9736Z" fill="url(#paint0_linear_0_7538)" stroke="var(--stroke-0, white)" stroke-width="0.5"/>
<defs>
<linearGradient id="paint0_linear_0_7538" x1="10.7857" y1="4.83333" x2="42.7188" y2="26.1726" gradientUnits="userSpaceOnUse">
<stop stop-color="#E4225A"/>
<stop offset="1" stop-color="#7E1332"/>
</linearGradient>
</defs>
</svg>
